<?xml version="1.0" standalone="no"?>
<!DOCTYPE svg PUBLIC "-//W3C//DTD SVG 1.1//EN" "http://www.w3.org/Graphics/SVG/1.1/DTD/svg11.dtd" >
<svg xmlns="http://www.w3.org/2000/svg">
<metadata>
This is a custom SVG webfont generated by Font Squirrel.
Copyright   : Digitized data copyright The Monotype Corporation 19911995 All rights reserved Gill Sans is a trademark of The Monotype Corporation which may be registered in certain jurisdictions
Designer    : Eric Gill
Foundry     : Monotype Typography
Foundry URL : httpwwwmonotypecomhtmlmtnamemswelcomehtml
</metadata>
<defs>
<font id="webfont1BjNyBGh" horiz-adv-x="1024" >
<font-face units-per-em="2048" ascent="1638" descent="-410" />
<missing-glyph horiz-adv-x="567" />
<glyph unicode=" "  horiz-adv-x="567" />
<glyph unicode="&#x09;" horiz-adv-x="567" />
<glyph unicode="&#xa0;" horiz-adv-x="567" />
<glyph unicode="!" horiz-adv-x="552" d="M152 104q0 53 36.5 90t88 37t88 -36.5t36.5 -90.5q0 -51 -36 -86q-39 -35 -86 -34q-51 0 -91 34q-36 34 -36 86zM164 1122q0 293 115 293q113 0 112 -285q0 -242 -45 -485l-27 -153l-16 -58q-8 -31 -27 -31q-12 0 -20 33l-16 51q-18 53 -47 272.5t-29 362.5z" />
<glyph unicode="&#x22;" horiz-adv-x="724" d="M94 1227v239h205v-239l-45 -281h-111zM426 1227v239h205v-239l-47 -281h-109z" />
<glyph unicode="#" horiz-adv-x="1193" d="M4 377v123h223l78 370h-301v123h326l86 404h121l-86 -404h421l84 404h123l-86 -404h199v-123h-223l-76 -370h299v-123h-324l-84 -400h-122l86 400h-424l-84 -400h-123l84 400h-197zM348 500h424l76 370h-422z" />
<glyph unicode="$" horiz-adv-x="1107" d="M104 125v252q92 -84 185 -137q88 -51 200 -74v440q-168 57 -237 109q-68 49 -107 118.5t-39 143.5q0 141 105 240q106 100 278 124v74h168v-74q197 -31 306 -120v-230q-125 127 -306 170v-405q184 -55 277 -158q94 -102 94 -237.5t-92 -241.5q-45 -51 -109 -86 q-57 -33 -170 -51v-222h-168v222q-166 14 -385 143zM305 991q0 -57 35 -96t125 -76q23 -8 24 -10v352q-80 -12 -133 -59q-51 -45 -51 -111zM657 168q172 41 172 176q0 58 -30 98q-27 35 -111 80l-31 17v-371z" />
<glyph unicode="%" horiz-adv-x="1382" d="M51 1100q0 131 90 221q92 92 221 92q127 0 219.5 -92t92.5 -221q0 -127 -92.5 -219.5t-219 -92.5t-219 92.5t-92.5 219.5zM152 -16l919 1433h154l-920 -1433h-153zM199 1099.5q0 -67.5 47 -112.5q51 -47 114 -47q68 0 115 47t47 113q0 68 -47 115t-114.5 47t-114.5 -47.5 t-47 -115zM709 297q0 127 92 219t221 92q127 0 219 -92t92 -219q0 -129 -92 -217q-94 -90 -219 -90q-129 0 -223 90q-90 88 -90 217zM860 297q0 -68 47 -115t113 -47q68 0 115 47t47 115q0 66 -47.5 113t-114.5 47q-66 0 -113 -47t-47 -113z" />
<glyph unicode="&#x26;" horiz-adv-x="1280" d="M59 309q0 96 50 176q47 76 161 162l2 2q70 53 115 76q-158 170 -158 324q0 143 97 231q100 90 252 90q150 0 249 -88q98 -86 99 -221q0 -184 -244 -356l-14 -11l196 -225q86 94 150 225h200q-68 -178 -227 -366l283 -328h-256l-162 190q-29 -29 -72 -61l-2 -2 q-68 -55 -176 -100q-104 -43 -196 -43q-145 0 -246 94t-101 231zM258 317q0 -59 51 -102q49 -41 123 -41q51 0 127 33q72 31 125 82l45 41l-227 262l-88 -62q-156 -104 -156 -213zM428 1067q0 -53 35 -119q33 -63 92 -119l76 54q106 74 106 174q0 61 -45 102t-112 41 q-63 0 -109 -39q-43 -37 -43 -94z" />
<glyph unicode="'" horiz-adv-x="382" d="M90 1221v245h205v-245l-47 -275h-113z" />
<glyph unicode="(" horiz-adv-x="661" d="M131 471q0 237 86 455q84 213 307 489h113q-131 -195 -182 -317q-57 -137 -84 -303q-29 -178 -29 -330q0 -547 295 -934h-113l-30 37q-104 123 -168 223q-49 76 -109 225q-86 222 -86 455z" />
<glyph unicode=")" horiz-adv-x="661" d="M25 -469q135 205 186 332q53 129 82 301q27 158 26 313q0 162 -32 336q-29 156 -94 311q-61 147 -168 291h112l31 -37q102 -123 166 -221q51 -82 108 -225q88 -227 88 -459q0 -225 -79 -434q-40 -104 -99 -209q-55 -98 -215 -299h-112z" />
<glyph unicode="*" horiz-adv-x="851" d="M35 827q0 66 123 107l202 70q-4 20 -4 24l4 23l-231 86q-90 31 -90 86q0 33 20 53q23 23 50 22q20 0 65 -32l27 -21l174 -164q18 16 39 21l-39 205l-10 43q-4 14 -5 45q0 92 70 92q68 0 68 -82q0 -29 -13 -94l-41 -209h5q23 0 36 -21l172 164q53 51 95 51q29 0 47 -20 q18 -23 18 -51q0 -66 -78 -88l-22 -7l-219 -79q4 -16 4 -25q0 -10 -4 -22l231 -86l45 -23q18 -9 31 -31q12 -20 12 -37q0 -23 -20 -47q-18 -23 -45 -22q-49 0 -117 67l-150 150q-20 -20 -41 -21l41 -211q8 -35 9 -92q0 -88 -68 -88q-70 0 -70 96q0 27 6 52l52 243 q-18 4 -39 21l-160 -148q-74 -68 -113 -67q-27 0 -47 20t-20 47z" />
<glyph unicode="+" horiz-adv-x="1193" d="M115 639v168h397v399h170v-399h399v-168h-399v-401h-170v401h-397z" />
<glyph unicode="," horiz-adv-x="448" d="M78 131q0 53 37 94q37 39 86 39q61 0 100 -53t39 -139q0 -113 -64 -195q-66 -86 -176 -119v37q45 41 64 86q16 41 20 119q-106 31 -106 131z" />
<glyph unicode="-" horiz-adv-x="661" d="M82 356v195h498v-195h-498z" />
<glyph unicode="." horiz-adv-x="448" d="M102 102q0 51 35 86t86 35q47 0 86 -35q37 -34 37 -86q0 -51 -35 -84q-39 -35 -88 -34q-51 0 -86 34.5t-35 83.5z" />
<glyph unicode="/" horiz-adv-x="573" d="M4 -18l404 1433h143l-401 -1433h-146z" />
<glyph unicode="0" d="M63 698q0 317 127 519q125 199 330 198q193 0 318 -200.5t125 -512.5q0 -319 -125 -517.5t-326 -198.5q-203 0 -326 194q-123 192 -123 518zM262 700q0 -246 66 -389q66 -141 182 -141q115 0 182.5 141.5t67.5 382.5q0 246 -64 387q-63 143 -174 144h-10 q-115 0 -182.5 -141.5t-67.5 -383.5z" />
<glyph unicode="1" d="M414 0v1397h200v-1397h-200z" />
<glyph unicode="2" d="M70 0v14l84 99q186 231 313 413q109 156 151 258q37 86 37 172q0 117 -67.5 189t-177.5 72q-83 0 -166 -50q-78 -47 -146 -139v254q164 133 336 133q180 0 301 -123q119 -121 119 -309q0 -92 -29 -180q-29 -90 -104 -219q-70 -119 -256 -340l-43 -51h532v-193h-884z" />
<glyph unicode="3" d="M131 61v218q157 -98 307 -99q102 0 162 60q61 61 62 159q0 86 -52 146q-35 39 -65 51q-37 14 -158 31l-18 2v184h12q133 0 199 53q70 57 69 158q0 94 -67 152q-66 57 -174.5 57t-241.5 -68v191q123 61 266 61q197 0 305 -100q111 -101 111 -277q0 -104 -43 -178 t-137 -125q84 -31 120.5 -78t59.5 -112q20 -61 20 -141q0 -180 -123 -302q-125 -121 -307 -120q-157 -1 -307 77z" />
<glyph unicode="4" d="M23 461v86l704 868h82v-784h156v-170h-156v-461h-195v461h-591zM291 631h323v405z" />
<glyph unicode="5" d="M102 68v206q151 -98 295 -98q125 0 211 74t86 180q0 111 -94 186q-92 74 -231 74q-121 0 -162 -20v727h620v-178h-438v-353q14 2 43 2q203 0 334 -122.5t131 -315.5q0 -199 -129 -321.5t-336 -122.5q-172 0 -330 82z" />
<glyph unicode="6" d="M92 485q0 168 62 334q59 164 180 311q123 152 295 271l20 14l121 -153q-168 -111 -266 -226q-104 -123 -162 -286q109 57 221 57q166 0 279 -117q113 -115 112 -287q0 -174 -122.5 -296.5t-299.5 -122.5q-197 0 -319 139q-121 135 -121 362zM291 438q0 -115 69 -194 q68 -76 175 -76q98 0 159.5 65.5t61.5 163.5q0 104 -66 164q-68 61 -176 62q-61 0 -102 -17q-47 -18 -113 -63q-8 -42 -8 -105z" />
<glyph unicode="7" d="M100 1206v191h904l-633 -1413l-178 75l512 1147h-605z" />
<glyph unicode="8" d="M66 385q0 213 198 328q-84 66 -127 143q-39 70 -39 166q0 166 123 278q125 115 301 115q174 0 295 -114.5t121 -278.5q0 -186 -174 -309q195 -111 194 -330q0 -172 -127 -287q-125 -113 -317 -112q-190 0 -319 116.5t-129 284.5zM268 393q0 -94 70 -157q68 -61 178 -62 q104 0 172 55.5t68 145.5v20q0 94 -67.5 155.5t-178.5 61.5q-106 0 -174 -61.5t-68 -157.5zM297 1018q0 -88 65 -150q63 -61 158 -61q90 0 156 61q63 61 63 148q0 90 -63.5 149.5t-157.5 59.5q-100 0 -160 -58q-61 -57 -61 -149z" />
<glyph unicode="9" d="M74 999q0 175 123 295q125 121 297 121q199 0 323 -143q127 -145 127 -367q0 -254 -157.5 -514t-403.5 -407l-123 145q152 96 270 238q115 135 156 286q-96 -59 -223 -59q-162 0 -275 119q-114 120 -114 286zM272 1001q0 -92 70 -157.5t164 -65.5q113 0 219 74 q12 80 12 104q0 120 -67 197q-68 78 -174 78q-94 0 -160 -66q-64 -64 -64 -164z" />
<glyph unicode=":" horiz-adv-x="448" d="M94 104q0 47 35 86q34 37 86 37q49 0 86 -36.5t37 -86.5q0 -51 -37 -86q-39 -35 -86 -34.5t-86 34.5q-35 33 -35 86zM111 815q0 47 34 86q35 37 86 37q49 0 86 -37t37 -86t-37 -86q-35 -35 -86 -35q-49 0 -84 35q-36 37 -36 86z" />
<glyph unicode=";" horiz-adv-x="468" d="M102 131q0 53 37 94q37 39 86 39q61 0 101 -55q39 -53 39 -137q0 -113 -64 -195q-66 -86 -176 -119v37q43 39 61 84q16 41 21 111l2 10q-107 31 -107 131zM123 815q0 51 35 86q37 37 86 37q51 0 88 -37q35 -35 35 -86t-35 -86t-86 -35t-86 35q-37 37 -37 86z" />
<glyph unicode="&#x3c;" horiz-adv-x="1193" d="M113 641v168l970 410v-179l-770 -315l770 -319v-181z" />
<glyph unicode="=" horiz-adv-x="1193" d="M115 418v168h966v-168h-966zM115 862v168h966v-168h-966z" />
<glyph unicode="&#x3e;" horiz-adv-x="1193" d="M113 225v181l768 319l-768 315v179l970 -410v-168z" />
<glyph unicode="?" horiz-adv-x="681" d="M133 1198l131 219q166 -6 246 -90q84 -88 84 -209q0 -84 -33 -170q-37 -98 -145 -262q-131 -201 -131 -287q0 -14 6 -41q-68 31 -98 74q-29 41 -29 117q0 70 24 125q27 61 113 196.5t86 225.5q0 61 -39 98q-41 37 -102 37q-50 0 -113 -33zM195 102.5q0 49.5 34 87.5 q33 37 86.5 37t88 -34.5t34.5 -88.5q0 -52 -37 -86q-39 -35 -88 -34.5t-83.5 35t-34.5 84z" />
<glyph unicode="@" horiz-adv-x="2066" d="M111 467q0 285 133 534q131 246 352 371q215 121 508 121q372 0 614 -221t242 -561q0 -178 -86 -344q-86 -164 -227 -267q-143 -102 -291 -102q-100 0 -144 37q-41 37 -51 129q-66 -78 -145.5 -121t-159.5 -43q-156 0 -258 127q-104 129 -104 319q0 156 73 306 q70 141 197 239q121 92 248 92q193 0 301 -184l35 156h180l-160 -742q-14 -59 -14 -84q0 -29 20 -47q25 -20 49 -20q63 0 166 84q101 83 160 209q59 129 59 262q0 268 -204 450q-201 180 -510 181q-362 0 -598 -244t-236 -619q0 -367 227 -565q229 -201 639 -201 q244 0 422 82q57 27 142 82q68 45 135 135h180q-57 -119 -199 -231q-137 -109 -303 -162q-162 -51 -381 -51q-473 0 -741 238q-270 239 -270 655zM678 430q0 -125 61.5 -205t153.5 -80q139 0 250 154q113 156 112 350q0 131 -63 209q-66 80 -168 80q-135 0 -240 -156 q-106 -159 -106 -352z" />
<glyph unicode="A" horiz-adv-x="1363" d="M0 0l600 1405h141l625 -1405h-205l-186 414h-594l-176 -414h-205zM459 592h434l-225 506z" />
<glyph unicode="B" horiz-adv-x="1150" d="M154 0v1397h366q170 0 271 -47q96 -45 147 -127t51 -189q0 -205 -213 -295q154 -29 244 -127q90 -100 90 -231q0 -108 -55 -191q-57 -86 -162 -137q-111 -53 -266 -53h-473zM354 178h197q166 0 223 24.5t94 80.5q35 53 35 116q0 65 -37 117q-39 55 -106.5 80t-218.5 25 h-187v-443zM354 799h133q160 0 227.5 61.5t67.5 157.5q0 201 -256 201h-172v-420z" />
<glyph unicode="C" horiz-adv-x="1449" d="M100 694q0 303 217 512q219 209 537 209q217 0 489 -115v-215q-242 139 -479 139.5t-399 -151.5q-158 -150 -158 -379q0 -231 156 -379q157 -147 399 -147q254 0 496 156v-220q-223 -121 -508 -120q-236 0 -397 94q-164 96 -258.5 259.5t-94.5 356.5z" />
<glyph unicode="D" horiz-adv-x="1536" d="M156 2v1395h471q285 0 450 -86q168 -86 264 -250q98 -166 99 -363q0 -143 -54 -268q-55 -131 -153 -225q-98 -98 -238 -152q-84 -33 -145 -41q-72 -10 -252 -10h-442zM356 180h256q154 0 234 21q84 23 137 51q55 31 102 78q147 150 148 379q0 225 -152 366 q-59 55 -128.5 88t-137.5 45q-53 10 -209 11h-250v-1039z" />
<glyph unicode="E" d="M154 2v1395h792v-178h-592v-426h572v-179h-572v-434h611v-178h-811z" />
<glyph unicode="F" horiz-adv-x="960" d="M156 0v1397h745v-178h-545v-390h545v-178h-545v-651h-200z" />
<glyph unicode="G" horiz-adv-x="1515" d="M104 686q0 311 215.5 520t538.5 209q106 0 223 -26q102 -23 269 -93v-204q-250 145 -496 145q-229 0 -385 -156q-158 -158 -158 -383q0 -238 158 -389t403 -151q121 0 287 55l19 6v291h-269v178h469v-592q-262 -113 -512 -112q-346 0 -555 202q-207 201 -207 500z" />
<glyph unicode="H" horiz-adv-x="1492" d="M154 0v1397h200v-604h785v604h200v-1397h-200v608h-785v-608h-200z" />
<glyph unicode="I" horiz-adv-x="512" d="M156 0v1397h200v-1397h-200z" />
<glyph unicode="J" horiz-adv-x="512" d="M-125 -279h51q88 0 131 20.5t72 74.5q27 51 27 225v1356h200v-1379q0 -197 -39 -286q-40 -92 -129 -148q-90 -55 -211 -55q-18 0 -65 6z" />
<glyph unicode="K" horiz-adv-x="1341" d="M156 0v1397h200v-639l588 639h250l-606 -662l755 -735h-274l-713 690v-690h-200z" />
<glyph unicode="L" horiz-adv-x="1003" d="M154 0v1397h200v-1215h629v-182h-829z" />
<glyph unicode="M" horiz-adv-x="1597" d="M150 0v1397h188l465 -574l463 574h186v-1397h-201v1087l-430 -540h-37l-434 540v-1087h-200z" />
<glyph unicode="N" horiz-adv-x="1597" d="M160 0v1397h162l942 -1084v1084h190v-1397h-172l-934 1075v-1075h-188z" />
<glyph unicode="O" horiz-adv-x="1685" d="M92 694q0 313 211 518t537 205q328 0 540 -205q215 -205 215 -514t-217 -512q-219 -203 -549 -202q-313 0 -526 202q-211 203 -211 508zM299 694q0 -225 156 -377q152 -150 387 -149.5t391 154t156 380.5q0 223 -156 373q-158 152 -385 152q-244 0 -395 -150 q-154 -152 -154 -383z" />
<glyph unicode="P" horiz-adv-x="1042" d="M143 0v1399h443q199 0 319 -109q119 -106 119 -289q0 -121 -61 -217q-59 -92 -166 -135q-109 -43 -305 -43h-148v-606h-201zM344 784h219q125 0 189 58q66 59 65 164q0 215 -266 215h-207v-437z" />
<glyph unicode="Q" horiz-adv-x="1685" d="M90 694q0 311 213 518q211 205 539 205q324 0 538.5 -202.5t214.5 -512.5q0 -260 -161 -454q-162 -197 -420 -248l53 -20q244 -94 356 -95q61 0 140 27l-201 -195q-100 6 -197 33q-88 25 -207 80q-109 51 -282 170q-254 45 -420 241.5t-166 452.5zM299 692 q0 -224 154 -375q152 -150 389 -149q231 0 389 153.5t158 376.5q0 227 -154 379q-152 150 -393 150q-233 0 -389 -152q-154 -150 -154 -383z" />
<glyph unicode="R" horiz-adv-x="1236" d="M160 0v1397h350q211 0 336 -104.5t125 -284.5q0 -123 -62 -211q-63 -90 -174 -133q68 -43 131.5 -119t180.5 -266q57 -94 116 -179l74 -100h-238l-61 92l-12 17l-39 55l-62 102l-67 109q-61 86 -113 137q-53 53 -94 74q-45 23 -139 22h-52v-608h-200zM360 786h76 q154 0 209 25t88 80q31 51 31 118.5t-35 120.5q-34 52 -98 74q-68 23 -211 23h-60v-441z" />
<glyph unicode="S" horiz-adv-x="937" d="M84 1044q0 164 115 269q111 102 297 102q174 0 321 -98v-227q-152 145 -325 145q-96 0 -160 -45t-64 -117q0 -66 45 -119q43 -53 150 -114l153 -90q256 -152 256 -388q0 -170 -112.5 -274t-292.5 -104q-207 0 -377 127v254q162 -205 375 -205q92 0 155.5 53t63.5 131 q0 127 -184 242l-152 92q-139 82 -203 172q-61 85 -61 194z" />
<glyph unicode="T" horiz-adv-x="1236" d="M35 1221v178h1167v-178h-487v-1221h-201v1221h-479z" />
<glyph unicode="U" horiz-adv-x="1449" d="M125 606v791h201v-793q0 -199 45 -274q47 -78 137 -123q94 -47 217 -47q178 0 291 94q59 51 84 117q27 74 26 233v793h201v-793q0 -162 -24 -244q-25 -80 -58 -135q-33 -53 -84 -98q-164 -143 -434 -143t-438 143q-51 45 -84 98q-39 63 -58 133q-22 84 -22 248z" />
<glyph unicode="V" horiz-adv-x="1236" d="M0 1397h201l420 -981l417 981h199l-590 -1403h-45z" />
<glyph unicode="W" horiz-adv-x="2131" d="M0 1397h201l385 -963l387 963h190l389 -963l381 963h199l-565 -1403h-43l-457 1136l-461 -1136h-43z" />
<glyph unicode="X" horiz-adv-x="1449" d="M4 0l602 723l-559 674h244l438 -533l436 533h242l-557 -674l596 -723h-242l-475 578l-481 -578h-244z" />
<glyph unicode="Y" horiz-adv-x="1236" d="M0 1397h242l374 -482l379 482h242l-516 -658v-739h-205v739z" />
<glyph unicode="Z" horiz-adv-x="1320" d="M25 0l895 1221h-838v178h1204l-893 -1221h893v-178h-1261z" />
<glyph unicode="[" horiz-adv-x="681" d="M176 -451v1848h477v-164h-280v-1520h280v-164h-477z" />
<glyph unicode="\" horiz-adv-x="573" d="M25 1415h145l399 -1433h-143z" />
<glyph unicode="]" horiz-adv-x="681" d="M31 -287h278v1520h-278v164h475v-1848h-475v164z" />
<glyph unicode="^" horiz-adv-x="960" d="M53 596l355 801h145l354 -801h-182l-246 598l-241 -598h-185z" />
<glyph unicode="_" horiz-adv-x="1128" d="M-29 -274h1190v-132h-1190v132z" />
<glyph unicode="`" horiz-adv-x="681" d="M123 1419h205l137 -301h-113z" />
<glyph unicode="a" horiz-adv-x="872" d="M55 209q0 88 61.5 155.5t178.5 108.5l233 80v49q0 166 -166 166q-150 0 -290 -154v199q106 125 305 125q150 0 239 -78q27 -23 54 -67q25 -45 30 -82q6 -43 7 -158v-391q0 -47 32 -47q31 0 103 49v-111q-61 -40 -99 -55q-35 -14 -79 -14q-115 0 -138 92 q-119 -90 -247 -90q-96 0 -160 63.5t-64 159.5zM236 240q0 -55 36.5 -92t94.5 -37q86 0 161 71v273l-122 -47q-90 -37 -132 -74q-38 -37 -38 -94z" />
<glyph unicode="b" d="M121 51v1346h182v-543q117 86 252 86q176 0 287 -131q111 -133 110 -340q0 -221 -133 -354q-131 -131 -354 -131q-90 0 -189 18q-85 16 -155 49zM303 182q96 -29 191 -28q121 0 198 86q76 84 76 221q0 135 -72 223q-70 86 -186 86q-100 0 -207 -90v-498z" />
<glyph unicode="c" horiz-adv-x="894" d="M78 455q0 219 125 350q127 133 329 133q61 0 127 -14q57 -12 140 -50v-194q-137 88 -256 88q-121 0 -201 -86t-80 -221q0 -141 86 -223q88 -84 230 -84q106 0 241 61v-180q-135 -51 -268 -51q-215 0 -344 129t-129 342z" />
<glyph unicode="d" horiz-adv-x="1042" d="M90 475q0 205 127 334q129 131 326 131q96 0 200 -39v496h183v-1397h-389q-203 0 -326 129q-121 127 -121 346zM274 453q0 -143 70 -220q43 -47 88 -61q49 -16 170 -16h141v583q-86 43 -172 43q-137 0 -217 -90q-80 -88 -80 -239z" />
<glyph unicode="e" horiz-adv-x="980" d="M84 465q0 211 119 342t309 131q186 0 293 -127q109 -131 108 -344v-23h-647q6 -135 88 -211q84 -78 211 -77q178 0 332 112v-178q-83 -55 -166 -80q-84 -25 -194 -24q-152 0 -246 63q-96 66 -150 170q-57 111 -57 246zM270 553h463q-6 109 -65.5 168t-155.5 59t-160 -59 t-82 -168z" />
<glyph unicode="f" horiz-adv-x="512" d="M18 756v164h132v55q0 225 94 332q96 109 227 108q58 0 135 -18v-178q-45 16 -84 16q-106 0 -149 -57q-41 -55 -41 -203v-55h164v-164h-164v-756h-182v756h-132z" />
<glyph unicode="g" horiz-adv-x="872" d="M0 -180q0 186 231 241q-92 58 -92 117q0 43 39 80q37 35 107 53q-203 90 -203 291q0 145 108.5 231.5t292.5 86.5h379v-142h-186q53 -53 76 -100q20 -43 20 -103q0 -70 -41 -141q-39 -68 -106.5 -106.5t-210.5 -59.5q-102 -14 -103 -71q0 -31 39 -52q41 -23 139 -43 q162 -35 218 -59q51 -23 88 -59q66 -66 65 -166q0 -132 -117 -209q-119 -78 -311 -78q-201 0 -315 78q-117 80 -117 211zM172 -182q0 -141 256 -142q125 0 188 35q66 35 66 101q0 63 -84 104q-86 41 -217 41q-92 0 -150 -39q-59 -41 -59 -100zM246 592q0 -72 51 -117 q53 -47 129 -47t129 47q51 45 51 119q0 72 -51 121q-49 47 -131 47q-72 0 -125 -49t-53 -121z" />
<glyph unicode="h" d="M125 0v1397h182v-598q115 139 283 139q94 0 166 -45q70 -43 108 -127q35 -76 35 -242v-524h-182v569q0 100 -49.5 162t-130.5 62q-61 0 -113 -31q-51 -29 -117 -103v-659h-182z" />
<glyph unicode="i" horiz-adv-x="448" d="M117 1200q0 37 33 74q31 33 73 33q45 0 76 -31q33 -33 33 -76t-33 -75.5t-76 -32.5t-73 32q-33 37 -33 76zM133 0v920h182v-920h-182z" />
<glyph unicode="j" horiz-adv-x="448" d="M-10 -336q61 20 100 78q37 55 37 127v1051h182v-1051q0 -240 -184 -338zM106 1200q0 41 33 74t74 33q47 0 78 -31t31 -76q0 -47 -31 -77.5t-76 -30.5q-39 0 -76 32q-33 31 -33 76z" />
<glyph unicode="k" horiz-adv-x="980" d="M129 0v1397h182v-1397h-182zM319 469l408 451h217l-393 -451l473 -469h-244z" />
<glyph unicode="l" horiz-adv-x="448" d="M133 0v1397h182v-1397h-182z" />
<glyph unicode="m" horiz-adv-x="1576" d="M121 0v920h182v-121q139 139 272 139q175 0 271 -166q147 168 305 168q135 0 221 -98.5t86 -298.5v-543h-182v545q0 113 -47 176q-46 61 -135 61q-113 0 -211 -114v-668h-183v512q0 150 -41 213q-41 61 -143 61q-55 0 -104 -26q-43 -23 -109 -92v-668h-182z" />
<glyph unicode="n" d="M125 0v920h186v-117q123 135 277 135q82 0 160 -45q72 -41 112 -121q39 -76 39 -246v-526h-182v524q0 139 -43 200.5t-144 61.5q-129 0 -219 -129v-657h-186z" />
<glyph unicode="o" horiz-adv-x="1128" d="M76 451q0 203 141 337q139 133 352 134q209 0 348.5 -135.5t139.5 -340.5q0 -200 -142 -331q-139 -131 -354 -131q-207 0 -346 133t-139 334zM260 453q0 -132 86 -215q88 -84 221 -84q135 0 219 84q86 86 86 217t-90 217t-223 86q-132 0 -215 -86q-84 -88 -84 -219z" />
<glyph unicode="p" d="M117 -469v1389h319q248 0 381 -121q137 -125 137 -342q0 -207 -129 -340t-327 -133q-90 0 -195 39v-492h-186zM303 184q82 -43 176 -43q127 0 209 88t82 230q0 94 -39 159q-43 72 -104 101q-68 31 -195 31h-129v-566z" />
<glyph unicode="q" d="M72 451q0 215 133 342t358 127h344v-1389h-182v485q-127 -33 -201 -32q-195 0 -323.5 133t-128.5 334zM256 455q0 -143 84 -230q86 -90 219 -90q23 0 51 4q8 2 88 27l15 4l12 4v576h-115q-113 0 -157 -11q-37 -8 -68 -28q-33 -23 -53 -45q-76 -88 -76 -211z" />
<glyph unicode="r" horiz-adv-x="808" d="M141 0v920h183v-211l10 16q133 213 264 213q104 0 215 -104l-96 -160q-96 90 -176 90q-86 0 -151.5 -84t-65.5 -199v-481h-183z" />
<glyph unicode="s" horiz-adv-x="786" d="M84 66v196q72 -51 158 -88q78 -33 135 -33t98 29t41 66q0 41 -27 67q-29 29 -114 76q-174 98 -230 168q-55 72 -55 151q0 104 82 172t213 68q137 0 277 -76v-180q-162 98 -265 98q-51 0 -86 -22q-33 -20 -32 -60q0 -35 30 -61q39 -35 103 -70l65 -37q229 -129 230 -288 q0 -111 -89 -185t-227 -73q-80 0 -145 18q-68 19 -162 64z" />
<glyph unicode="t" horiz-adv-x="681" d="M0 756v18l342 336v-190h291v-164h-291v-451q0 -158 131 -158q98 0 207 66v-170q-106 -59 -229 -59t-207 73q-25 22 -43 49q-14 20 -29 72q-12 43 -12 170v408h-160z" />
<glyph unicode="u" d="M125 393v527h182v-525q0 -147 41 -202q43 -57 146 -58q129 0 221 127v658h182v-920h-182v117q-57 -63 -133 -98t-148 -35q-86 0 -160 43q-76 43 -112 118q-37 74 -37 248z" />
<glyph unicode="v" horiz-adv-x="894" d="M6 920h199l248 -566l239 566h197l-406 -936h-61z" />
<glyph unicode="w" horiz-adv-x="1472" d="M0 920h195l241 -558l234 558h135l233 -558l240 558h195l-406 -936h-57l-273 641l-268 -641h-59z" />
<glyph unicode="x" d="M0 0l387 467l-387 453h229l273 -316l262 316h233l-379 -453l406 -467h-233l-289 330l-273 -330h-229z" />
<glyph unicode="y" horiz-adv-x="894" d="M0 920h207l248 -519l237 519h205l-651 -1389h-203l313 666z" />
<glyph unicode="z" horiz-adv-x="851" d="M23 0l483 750h-463v170h786l-487 -750h487v-170h-806z" />
<glyph unicode="{" horiz-adv-x="681" d="M57 449v163q74 0 121 35q49 37 68 105q18 72 18 247q4 219 15 281q12 72 57 125q40 49 92 68q51 18 152 18h57v-156h-33q-104 0 -137 -39t-33 -168v-147q0 -131 -18 -217q-18 -88 -61.5 -139.5t-131.5 -94.5q119 -49 164 -147q47 -100 47 -305v-144q0 -125 33 -167 q31 -39 137 -39h33v-156h-57q-98 0 -156 20q-53 18 -90 68q-43 57 -55 127q-10 61 -15 274q0 172 -20 248q-20 72 -70 105q-54 35 -117 35z" />
<glyph unicode="|" horiz-adv-x="530" d="M188 -471v1868h156v-1868h-156z" />
<glyph unicode="}" horiz-adv-x="681" d="M47 -272h31q106 0 139 38.5t33 167.5v144q0 203 47 303q47 102 162 149q-84 39 -125 86q-39 45 -62 134q-23 90 -22 231v147q0 129 -33 168t-139 39h-31v156h55q98 0 154 -18q53 -18 92 -70q45 -61 58 -127q10 -61 14 -277q0 -182 16 -245q18 -70 68 -107q47 -35 121 -35 v-163q-68 0 -117 -35q-53 -39 -72 -107q-18 -71 -18 -246q0 -197 -15 -276q-12 -70 -55 -127q-40 -49 -92 -68q-51 -18 -154 -18h-55v156z" />
<glyph unicode="~" horiz-adv-x="1193" d="M86 535v204q109 121 279 121q111 0 274 -69l80 -35q63 -29 133 -29q132 0 258 135v-211q-125 -115 -276 -114q-104 0 -246 61l-62 27q-102 45 -178 45q-68 0 -125 -29q-55 -26 -137 -106z" />
<glyph unicode="&#xa1;" horiz-adv-x="552" d="M152 924q0 49 36.5 86t87.5 37q53 0 89 -35q37 -37 36.5 -88.5t-34.5 -89.5q-35 -37 -88.5 -37t-90 37t-36.5 90zM162 -104q0 256 45 483l14 74q23 111 31 137q10 31 22 31q16 0 25 -33q0 -4 16 -53q23 -70 47 -275q27 -227 27 -358q0 -293 -113 -293q-114 0 -114 287z " />
<glyph unicode="&#xa2;" horiz-adv-x="894" d="M78 446q0 225 125 358.5t336 133.5q25 0 79 -6l121 338h95l-129 -359q18 -8 24 -8q43 -15 68 -31v-192q-66 53 -150 74l-209 -576q80 -27 129 -26q65 0 135 18t115 45v-176q-141 -57 -278 -57q-88 0 -162 18l-141 -387h-97l158 426q-101 58 -160 166t-59 241zM262 453 q0 -141 100 -230l197 545h-18q-123 0 -201 -88t-78 -227z" />
<glyph unicode="&#xa3;" horiz-adv-x="1085" d="M121 -16l162 602h-148v178h195q51 190 135 352q80 156 180 230q94 70 201 69q33 0 74 -8l114 -213q-59 31 -145 31q-109 0 -193 -97q-82 -94 -149 -301l-21 -63h156v-178h-209l-102 -387q41 4 78 4q113 0 182 -13l80 -14q33 -8 98 -8q135 0 207 45v-195 q-111 -35 -205 -34q-70 0 -117 8l-108 16q-78 10 -148 10q-161 1 -317 -34z" />
<glyph unicode="&#xa4;" horiz-adv-x="1128" d="M74 328l139 135q-72 113 -72 235.5t72 235.5l-139 135l114 121l140 -141q51 35 112 55q59 18 125 18t125 -18q61 -20 113 -55l137 141l117 -121l-139 -135q72 -113 71.5 -236t-71.5 -235l139 -135l-117 -119l-137 139q-51 -35 -113 -55q-59 -18 -124.5 -18.5t-125.5 18.5 q-61 20 -112 55l-140 -139zM305 698.5q0 -108.5 76 -184.5t182 -76q109 0 184.5 76t75.5 184.5t-75.5 184t-184.5 75.5q-106 0 -182 -75.5t-76 -184z" />
<glyph unicode="&#xa5;" horiz-adv-x="1128" d="M0 1466h199l288 -516q55 -96 76 -153q20 47 82 161l275 508h213l-404 -710h340v-150h-410v-143h410v-137h-410v-326h-182v326h-416v137h416v143h-416v150h342z" />
<glyph unicode="&#xa6;" horiz-adv-x="530" d="M188 360h156v-831h-156v831zM188 700v697h156v-697h-156z" />
<glyph unicode="&#xa7;" horiz-adv-x="829" d="M66 616q0 162 135 285q-55 95 -56 197q0 139 88 227q90 90 220 90q109 0 176 -49t67 -125q0 -51 -30.5 -82t-75.5 -31q-33 0 -57.5 25t-24.5 61v11q2 6 2 16q0 43 -63.5 43t-100.5 -37t-37 -102q0 -131 180 -299l95 -88q68 -66 125 -164q57 -100 57 -211q0 -86 -35 -162 q-33 -72 -117 -155q72 -100 72 -224q0 -133 -92 -221q-94 -90 -223 -90q-109 0 -174 51q-68 53 -68 131q0 55 33 90q34 37 80 37q43 0 71 -28q27 -27 27 -70q0 -10 -4 -35q-2 -6 -2 -10q0 -16 14 -25q16 -10 33 -10q61 0 104 43t43 105q0 63 -45 133q-49 74 -168 202 q-119 119 -155 174q-45 68 -70 144q-24 77 -24 153zM223 635q0 -47 17 -90q18 -47 49 -94q23 -35 141 -160l100 -107q35 35 55.5 82t20.5 90q0 40 -12 80t-37 74q-27 37 -123 133l-147 143q-64 -71 -64 -151z" />
<glyph unicode="&#xa8;" horiz-adv-x="681" d="M55 1272q0 41 27 67.5t65.5 26.5t67.5 -28.5t29 -67.5q0 -41 -27 -67.5t-65.5 -26.5t-67.5 28.5t-29 67.5zM440 1272q0 41 27 67.5t65.5 26.5t67.5 -28.5t29 -67.5q0 -41 -27 -67.5t-65.5 -26.5t-67.5 28.5t-29 67.5z" />
<glyph unicode="&#xa9;" horiz-adv-x="1515" d="M2 664q0 201 102 376q101 175 277 277q174 100 377 100q201 0 377 -102.5t276 -274.5q102 -176 102 -376.5t-102 -376.5t-274 -277q-174 -100 -379 -100t-379 100q-176 102 -277 275q-100 174 -100 379zM129 663.5q0 -260.5 184.5 -444.5t444.5 -184t444 184t184 444.5 t-184 444.5t-444 184t-444.5 -184t-184.5 -444.5zM362 662q0 195 109 309t295 114q131 0 219 -61q90 -61 123 -174l-119 -29q-61 154 -227 154q-120 0 -191 -86q-72 -88 -71 -232q0 -144 67 -227q68 -82 185 -82q92 0 157 51q70 53 90 142l123 -37q-31 -127 -129 -201 t-235 -74q-181 0 -289 117q-107 115 -107 316z" />
<glyph unicode="&#xaa;" horiz-adv-x="573" d="M31 981q0 106 164 160l139 45v24q0 90 -92 90q-49 0 -97 -24q-49 -27 -104 -82v141q74 80 207 80q120 0 172 -55q53 -57 53 -178v-207q0 -45 10 -45q12 0 76 41v-86q-78 -47 -127 -47q-76 0 -94 47q-76 -47 -154 -47q-63 0 -108 41t-45 102zM172 997q0 -70 72 -69 q43 0 90 37v147l-64 -22q-57 -23 -75 -41q-23 -23 -23 -52z" />
<glyph unicode="&#xab;" horiz-adv-x="1003" d="M57 461l303 459h181l-303 -459l303 -461h-181zM475 461l301 459h180l-303 -459l303 -461h-180z" />
<glyph unicode="&#xac;" horiz-adv-x="1193" d="M113 694v168h968v-606h-170v438h-798z" />
<glyph unicode="&#xad;" horiz-adv-x="659" d="M82 356v195h498v-195h-498z" />
<glyph unicode="&#xae;" horiz-adv-x="1515" d="M2 664q0 201 102 376q101 175 277 277q174 100 377 100q201 0 377 -102.5t276 -274.5q102 -176 102 -376.5t-102 -376.5t-274 -277q-174 -100 -379 -100t-379 100q-176 102 -277 275q-100 174 -100 379zM129 663.5q0 -260.5 184.5 -444.5t444.5 -184t444 184t184 444.5 t-184 444.5t-444 184t-444.5 -184t-184.5 -444.5zM457 258v811h280q150 0 211 -25q63 -25 99 -77q37 -55 36 -117q0 -92 -65 -158q-61 -61 -166 -71q46 -18 86 -62q39 -43 102 -143l99 -158h-160l-72 127q-77 138 -123 178q-45 39 -118 39h-78v-344h-131zM588 715h160 q104 0 149 30.5t45 92.5q0 68 -45 94t-160 26h-149v-243z" />
<glyph unicode="&#xaf;" horiz-adv-x="1128" d="M-35 1495v133h1200v-133h-1200z" />
<glyph unicode="&#xb0;" horiz-adv-x="808" d="M127 1214q0 113 82 195t196.5 82t194.5 -82q82 -86 82 -195q0 -111 -82 -196q-80 -82 -194.5 -82t-196.5 81.5t-82 196.5zM236 1214q0 -70 51 -120q49 -49 118.5 -49.5t118.5 49t49 120.5q0 70 -49 119t-118 49q-72 0 -121 -49t-49 -119z" />
<glyph unicode="&#xb1;" horiz-adv-x="1193" d="M115 0v168h966v-168h-966zM115 664v165h397v400h170v-400h399v-165h-399v-404h-170v404h-397z" />
<glyph unicode="&#xb2;" horiz-adv-x="661" d="M57 680v14l6 6q6 8 37 39q127 131 213 240q88 113 88 195q0 58 -36 92q-39 35 -95 34q-100 0 -194 -118v159q101 74 209 74q115 0 186 -63q74 -66 74 -164q0 -35 -17 -84q-14 -45 -41 -84q-25 -37 -178 -215l-12 -14h307v-111h-547z" />
<glyph unicode="&#xb3;" horiz-adv-x="661" d="M94 715v129q100 -59 193 -60q55 0 88 29q31 27 31 76q0 53 -35 78q-37 27 -113 32l-25 2v107h13q154 0 153 102q0 43 -37 72q-35 27 -94 27q-55 0 -153 -41v112q80 35 168 35q117 0 186.5 -53t69.5 -145q0 -102 -97 -154q111 -43 111 -170q0 -96 -76 -159.5t-190 -63.5 q-97 0 -193 45z" />
<glyph unicode="&#xb4;" horiz-adv-x="681" d="M227 1118l135 301h203l-225 -301h-113z" />
<glyph unicode="&#xb5;" horiz-adv-x="1128" d="M178 -350v1270h174v-447q0 -147 21 -209q23 -66 69 -104q51 -41 117 -41q63 0 123 39q51 35 73.5 98t22.5 213v451h174v-920h-159v109q-49 -76 -97 -101q-53 -29 -129 -28q-72 0 -118 24q-49 27 -97 88v-442h-174z" />
<glyph unicode="&#xb6;" horiz-adv-x="1107" d="M2 1049q0 188 121 303q49 47 133 82q78 33 217 32h633v-174h-143v-1698h-170v1698h-224v-1698h-163v1043q-190 12 -295 121q-109 113 -109 291z" />
<glyph unicode="&#xb7;" horiz-adv-x="681" d="M526 723q0 43 31 74q33 33 78 32q41 0 73.5 -32.5t32.5 -75.5q0 -45 -30 -76q-33 -33 -76 -33q-45 0 -78 33q-31 31 -31 78z" />
<glyph unicode="&#xb8;" horiz-adv-x="681" d="M207 -231q14 0 29.5 -1t22.5 -2.5t11 -1.5q57 0 90 23q18 12 19 33q0 27 -20.5 41t-75.5 14q-14 0 -23 -2l51 143h117l-14 -49q51 -12 84 -51q31 -37 30 -84q0 -77 -61 -129q-63 -53 -195 -53q-39 0 -65 6v113z" />
<glyph unicode="&#xb9;" horiz-adv-x="661" d="M260 680v727h141v-727h-141z" />
<glyph unicode="&#xba;" horiz-adv-x="747" d="M47 1135q0 121 88 200q90 80 225 80q151 0 246 -80q94 -80 94 -205q0 -121 -94 -200.5t-235.5 -79.5t-231.5 82q-92 84 -92 203zM190 1130q0 -74 52 -118q53 -47 133 -47t133 47q51 45 51 123q0 76 -53 125q-49 47 -135 47q-77 0 -129 -50q-52 -49 -52 -127z" />
<glyph unicode="&#xbb;" horiz-adv-x="1003" d="M47 0l303 459l-303 461h178l303 -461l-303 -459h-178zM463 0l303 459l-303 461h178l303 -461l-303 -459h-178z" />
<glyph unicode="&#xbc;" horiz-adv-x="1728" d="M258 680v727h141v-727h-141zM1282 1415h139l-930 -1468h-137zM1520 737h65v-401h92v-101h-92v-235h-137v235h-348v52zM1448 336v172l-162 -172h162z" />
<glyph unicode="&#xbd;" horiz-adv-x="1728" d="M258 680v727h141v-727h-141zM1223 1415h139l-930 -1468h-137zM1126 0v14l6 6q6 8 37 39q127 131 213 240q88 113 88 195q0 58 -36 92q-39 35 -95 34q-100 0 -194 -118v159q101 74 209 74q115 0 186 -63q74 -66 74 -164q0 -35 -17 -84q-14 -45 -41 -84q-25 -37 -178 -215 l-12 -14h307v-111h-547z" />
<glyph unicode="&#xbe;" horiz-adv-x="1728" d="M92 715v129q100 -59 193 -60q55 0 88 29q31 27 31 76q0 53 -35 78q-37 27 -113 32l-25 2v107h13q154 0 153 102q0 43 -37 72q-35 27 -94 27q-55 0 -153 -41v112q80 35 168 35q117 0 186.5 -53t69.5 -145q0 -102 -97 -154q111 -43 111 -170q0 -96 -76 -159.5t-190 -63.5 q-97 0 -193 45zM1260 1415h139l-930 -1468h-137zM1520 737h65v-401h92v-101h-92v-235h-137v235h-348v52zM1448 336v172l-162 -172h162z" />
<glyph unicode="&#xbf;" horiz-adv-x="681" d="M133 -92q0 84 33 170q35 90 143 260q133 205 133 287q0 12 -6 43q68 -31 96.5 -76t28.5 -117q0 -70 -24 -125q-33 -72 -111 -196q-86 -135 -86 -222q0 -63 37 -100t102 -37q49 0 115 33l-133 -217q-154 2 -242 88q-86 83 -86 209zM287 922q0 53 37 86q39 35 88 34.5 t88 -34.5q35 -33 35 -86.5t-35 -88t-88.5 -34.5t-87.5 35q-37 37 -37 88z" />
<glyph unicode="&#xc0;" horiz-adv-x="1363" d="M0 0l600 1405h141l625 -1405h-205l-186 414h-594l-176 -414h-205zM459 592h434l-225 506zM432 1800h205l137 -301h-113z" />
<glyph unicode="&#xc1;" horiz-adv-x="1363" d="M0 0l600 1405h141l625 -1405h-205l-186 414h-594l-176 -414h-205zM459 592h434l-225 506zM569 1499l135 301h203l-225 -301h-113z" />
<glyph unicode="&#xc2;" horiz-adv-x="1363" d="M0 0l600 1405h141l625 -1405h-205l-186 414h-594l-176 -414h-205zM459 592h434l-225 506zM397 1501l189 309h188l195 -309h-113l-178 176l-172 -176h-109z" />
<glyph unicode="&#xc3;" horiz-adv-x="1363" d="M0 0l600 1405h141l625 -1405h-205l-186 414h-594l-176 -414h-205zM459 592h434l-225 506zM363 1536q16 143 57 188q43 47 107 48q53 0 188 -54q66 -27 96 -26q27 0 47.5 20.5t26.5 65.5h78q0 -121 -55 -189q-43 -53 -105 -53q-57 0 -147 39q-94 41 -141 41q-27 0 -46 -21 q-20 -23 -22 -59h-84z" />
<glyph unicode="&#xc4;" horiz-adv-x="1363" d="M0 0l600 1405h141l625 -1405h-205l-186 414h-594l-176 -414h-205zM459 592h434l-225 506zM397 1612q0 41 27 67.5t65.5 26.5t67.5 -28.5t29 -67.5q0 -41 -27 -67.5t-65.5 -26.5t-67.5 28.5t-29 67.5zM782 1612q0 41 27 67.5t65.5 26.5t67.5 -28.5t29 -67.5 q0 -41 -27 -67.5t-65.5 -26.5t-67.5 28.5t-29 67.5z" />
<glyph unicode="&#xc5;" horiz-adv-x="1363" d="M0 0l600 1405h141l625 -1405h-205l-186 414h-594l-176 -414h-205zM459 592h434l-225 506zM684 1880q78 0 133 -55.5t55 -132.5q0 -80 -55 -135q-57 -57 -133 -58q-78 0 -135 58q-55 55 -55 132.5t57 135.5q55 55 133 55zM680 1798q-53 0 -82 -29q-31 -31 -31 -79 q0 -47 35 -82q33 -33 82 -33t82 32.5t33 80t-33 79.5q-31 31 -86 31z" />
<glyph unicode="&#xc6;" horiz-adv-x="1832" d="M4 2l827 1395h912v-178h-574v-422h555v-179h-555v-438h596v-178h-796v616h-381l-365 -616h-219zM692 797h277v465z" />
<glyph unicode="&#xc7;" horiz-adv-x="1449" d="M100 694q0 303 217 512q219 209 537 209q217 0 489 -115v-215q-242 139 -479 139.5t-399 -151.5q-158 -150 -158 -379q0 -231 156 -379q157 -147 399 -147q254 0 496 156v-220q-223 -121 -508 -120h-4l-4 -17q51 -12 84 -51q31 -37 30 -84q0 -77 -61 -129 q-63 -53 -195 -53q-37 0 -65 6v113q14 0 29.5 -1t22.5 -2.5t11 -1.5q57 0 90 23q18 12 19 33q0 27 -20.5 41t-75.5 14q-14 0 -23 -2l41 119q-160 18 -276 86q-164 96 -258.5 259.5t-94.5 356.5z" />
<glyph unicode="&#xc8;" d="M154 2v1395h792v-178h-592v-426h572v-179h-572v-434h611v-178h-811zM293 1800h205l137 -301h-113z" />
<glyph unicode="&#xc9;" d="M154 2v1395h792v-178h-592v-426h572v-179h-572v-434h611v-178h-811zM397 1499l135 301h203l-225 -301h-113z" />
<glyph unicode="&#xca;" d="M154 2v1395h792v-178h-592v-426h572v-179h-572v-434h611v-178h-811zM266 1501l189 309h188l195 -309h-113l-178 176l-172 -176h-109z" />
<glyph unicode="&#xcb;" d="M154 2v1395h792v-178h-592v-426h572v-179h-572v-434h611v-178h-811zM225 1612q0 41 27 67.5t65.5 26.5t67.5 -28.5t29 -67.5q0 -41 -27 -67.5t-65.5 -26.5t-67.5 28.5t-29 67.5zM610 1612q0 41 27 67.5t65.5 26.5t67.5 -28.5t29 -67.5q0 -41 -27 -67.5t-65.5 -26.5 t-67.5 28.5t-29 67.5z" />
<glyph unicode="&#xcc;" horiz-adv-x="512" d="M156 0v1397h200v-1397h-200zM2 1800h205l137 -301h-113z" />
<glyph unicode="&#xcd;" horiz-adv-x="512" d="M156 0v1397h200v-1397h-200zM194 1499l135 301h203l-225 -301h-113z" />
<glyph unicode="&#xce;" horiz-adv-x="512" d="M156 0v1397h200v-1397h-200zM-17 1501l189 309h188l195 -309h-113l-178 176l-172 -176h-109z" />
<glyph unicode="&#xcf;" horiz-adv-x="512" d="M156 0v1397h200v-1397h-200zM-23 1612q0 41 27 67.5t65.5 26.5t67.5 -28.5t29 -67.5q0 -41 -27 -67.5t-65.5 -26.5t-67.5 28.5t-29 67.5zM362 1612q0 41 27 67.5t65.5 26.5t67.5 -28.5t29 -67.5q0 -41 -27 -67.5t-65.5 -26.5t-67.5 28.5t-29 67.5z" />
<glyph unicode="&#xd0;" horiz-adv-x="1536" d="M-6 633v131h162v633h471q285 0 450 -86q168 -86 264 -250q98 -166 99 -363q0 -143 -54 -268q-55 -131 -153 -225q-98 -98 -238 -152q-84 -33 -145 -41q-72 -10 -252 -10h-442v631h-162zM356 180h256q154 0 234 21q84 23 137 51q55 31 102 78q147 150 148 379 q0 225 -152 366q-59 55 -128.5 88t-137.5 45q-53 10 -209 11h-250v-455h396v-131h-396v-453z" />
<glyph unicode="&#xd1;" horiz-adv-x="1597" d="M160 0v1397h162l942 -1084v1084h190v-1397h-172l-934 1075v-1075h-188zM524 1536q16 143 57 188q43 47 107 48q53 0 188 -54q66 -27 96 -26q27 0 47.5 20.5t26.5 65.5h78q0 -121 -55 -189q-43 -53 -105 -53q-57 0 -147 39q-94 41 -141 41q-27 0 -46 -21q-20 -23 -22 -59 h-84z" />
<glyph unicode="&#xd2;" horiz-adv-x="1685" d="M92 694q0 313 211 518t537 205q328 0 540 -205q215 -205 215 -514t-217 -512q-219 -203 -549 -202q-313 0 -526 202q-211 203 -211 508zM299 694q0 -225 156 -377q152 -150 387 -149.5t391 154t156 380.5q0 223 -156 373q-158 152 -385 152q-244 0 -395 -150 q-154 -152 -154 -383zM604 1800h205l137 -301h-113z" />
<glyph unicode="&#xd3;" horiz-adv-x="1685" d="M92 694q0 313 211 518t537 205q328 0 540 -205q215 -205 215 -514t-217 -512q-219 -203 -549 -202q-313 0 -526 202q-211 203 -211 508zM299 694q0 -225 156 -377q152 -150 387 -149.5t391 154t156 380.5q0 223 -156 373q-158 152 -385 152q-244 0 -395 -150 q-154 -152 -154 -383zM704 1499l135 301h203l-225 -301h-113z" />
<glyph unicode="&#xd4;" horiz-adv-x="1685" d="M92 694q0 313 211 518t537 205q328 0 540 -205q215 -205 215 -514t-217 -512q-219 -203 -549 -202q-313 0 -526 202q-211 203 -211 508zM299 694q0 -225 156 -377q152 -150 387 -149.5t391 154t156 380.5q0 223 -156 373q-158 152 -385 152q-244 0 -395 -150 q-154 -152 -154 -383zM524 1501l189 309h188l195 -309h-113l-178 176l-172 -176h-109z" />
<glyph unicode="&#xd5;" horiz-adv-x="1685" d="M92 694q0 313 211 518t537 205q328 0 540 -205q215 -205 215 -514t-217 -512q-219 -203 -549 -202q-313 0 -526 202q-211 203 -211 508zM299 694q0 -225 156 -377q152 -150 387 -149.5t391 154t156 380.5q0 223 -156 373q-158 152 -385 152q-244 0 -395 -150 q-154 -152 -154 -383zM547 1536q16 143 57 188q43 47 107 48q53 0 188 -54q66 -27 96 -26q27 0 47.5 20.5t26.5 65.5h78q0 -121 -55 -189q-43 -53 -105 -53q-57 0 -147 39q-94 41 -141 41q-27 0 -46 -21q-20 -23 -22 -59h-84z" />
<glyph unicode="&#xd6;" horiz-adv-x="1685" d="M92 694q0 313 211 518t537 205q328 0 540 -205q215 -205 215 -514t-217 -512q-219 -203 -549 -202q-313 0 -526 202q-211 203 -211 508zM299 694q0 -225 156 -377q152 -150 387 -149.5t391 154t156 380.5q0 223 -156 373q-158 152 -385 152q-244 0 -395 -150 q-154 -152 -154 -383zM544 1612q0 41 27 67.5t65.5 26.5t67.5 -28.5t29 -67.5q0 -41 -27 -67.5t-65.5 -26.5t-67.5 28.5t-29 67.5zM929 1612q0 41 27 67.5t65.5 26.5t67.5 -28.5t29 -67.5q0 -41 -27 -67.5t-65.5 -26.5t-67.5 28.5t-29 67.5z" />
<glyph unicode="&#xd7;" horiz-adv-x="1193" d="M162 410l313 315l-313 313l121 121l315 -313l313 313l121 -121l-313 -313l313 -315l-121 -121l-313 313l-315 -313z" />
<glyph unicode="&#xd8;" horiz-adv-x="1685" d="M94 692q0 311 213 518q211 205 537 205q229 0 432 -117l98 121l94 -82l-94 -114q104 -94 162 -232q57 -135 57 -289q0 -309 -213 -512q-215 -205 -538 -204q-262 0 -432 114l-101 -118l-96 77l96 119q-106 96 -159 228q-56 134 -56 286zM301 700q0 -213 141 -372l703 821 q-139 82 -299 82q-233 0 -389 -152t-156 -379zM539 252q143 -82 303 -82q236 0 391 152q154 150 153 383q0 104 -38.5 200t-108.5 166z" />
<glyph unicode="&#xd9;" horiz-adv-x="1449" d="M125 606v791h201v-793q0 -199 45 -274q47 -78 137 -123q94 -47 217 -47q178 0 291 94q59 51 84 117q27 74 26 233v793h201v-793q0 -162 -24 -244q-25 -80 -58 -135q-33 -53 -84 -98q-164 -143 -434 -143t-438 143q-51 45 -84 98q-39 63 -58 133q-22 84 -22 248zM463 1800 h205l137 -301h-113z" />
<glyph unicode="&#xda;" horiz-adv-x="1449" d="M125 606v791h201v-793q0 -199 45 -274q47 -78 137 -123q94 -47 217 -47q178 0 291 94q59 51 84 117q27 74 26 233v793h201v-793q0 -162 -24 -244q-25 -80 -58 -135q-33 -53 -84 -98q-164 -143 -434 -143t-438 143q-51 45 -84 98q-39 63 -58 133q-22 84 -22 248zM622 1499 l135 301h203l-225 -301h-113z" />
<glyph unicode="&#xdb;" horiz-adv-x="1449" d="M125 606v791h201v-793q0 -199 45 -274q47 -78 137 -123q94 -47 217 -47q178 0 291 94q59 51 84 117q27 74 26 233v793h201v-793q0 -162 -24 -244q-25 -80 -58 -135q-33 -53 -84 -98q-164 -143 -434 -143t-438 143q-51 45 -84 98q-39 63 -58 133q-22 84 -22 248zM432 1501 l189 309h188l195 -309h-113l-178 176l-172 -176h-109z" />
<glyph unicode="&#xdc;" horiz-adv-x="1449" d="M125 606v791h201v-793q0 -199 45 -274q47 -78 137 -123q94 -47 217 -47q178 0 291 94q59 51 84 117q27 74 26 233v793h201v-793q0 -162 -24 -244q-25 -80 -58 -135q-33 -53 -84 -98q-164 -143 -434 -143t-438 143q-51 45 -84 98q-39 63 -58 133q-22 84 -22 248zM440 1612 q0 41 27 67.5t65.5 26.5t67.5 -28.5t29 -67.5q0 -41 -27 -67.5t-65.5 -26.5t-67.5 28.5t-29 67.5zM825 1612q0 41 27 67.5t65.5 26.5t67.5 -28.5t29 -67.5q0 -41 -27 -67.5t-65.5 -26.5t-67.5 28.5t-29 67.5z" />
<glyph unicode="&#xdd;" horiz-adv-x="1236" d="M0 1397h242l374 -482l379 482h242l-516 -658v-739h-205v739zM503 1499l135 301h203l-225 -301h-113z" />
<glyph unicode="&#xde;" horiz-adv-x="1042" d="M143 0v1397h201v-301h242q199 0 319 -109q119 -106 119 -291q0 -174 -121 -284q-61 -57 -158 -84q-92 -25 -253 -25h-148v-303h-201zM344 481h219q125 0 189 58q66 59 65 163q0 215 -266 216h-207v-437z" />
<glyph unicode="&#xdf;" d="M121 0v999q0 121 41 222q43 104 127 147q90 47 221 47q176 0 283 -90q104 -88 104 -244q0 -104 -53 -188q-52 -83 -148 -123q123 -31 193 -129q68 -95 67 -240q0 -184 -100 -299q-101 -117 -258 -116q-82 0 -141 14v178q51 -23 100 -22q98 0 156 69q59 72 59 189 q0 82 -29 137q-31 59 -88 92q-59 35 -182 37v166h27q102 0 159.5 55t57.5 158q0 92 -60 155q-57 59 -151 60q-104 0 -153.5 -65.5t-49.5 -207.5v-1001h-182z" />
<glyph unicode="&#xe0;" horiz-adv-x="872" d="M55 209q0 88 61.5 155.5t178.5 108.5l233 80v49q0 166 -166 166q-150 0 -290 -154v199q106 125 305 125q150 0 239 -78q27 -23 54 -67q25 -45 30 -82q6 -43 7 -158v-391q0 -47 32 -47q31 0 103 49v-111q-61 -40 -99 -55q-35 -14 -79 -14q-115 0 -138 92 q-119 -90 -247 -90q-96 0 -160 63.5t-64 159.5zM236 240q0 -55 36.5 -92t94.5 -37q86 0 161 71v273l-122 -47q-90 -37 -132 -74q-38 -37 -38 -94zM219 1419h205l137 -301h-113z" />
<glyph unicode="&#xe1;" horiz-adv-x="872" d="M55 209q0 88 61.5 155.5t178.5 108.5l233 80v49q0 166 -166 166q-150 0 -290 -154v199q106 125 305 125q150 0 239 -78q27 -23 54 -67q25 -45 30 -82q6 -43 7 -158v-391q0 -47 32 -47q31 0 103 49v-111q-61 -40 -99 -55q-35 -14 -79 -14q-115 0 -138 92 q-119 -90 -247 -90q-96 0 -160 63.5t-64 159.5zM236 240q0 -55 36.5 -92t94.5 -37q86 0 161 71v273l-122 -47q-90 -37 -132 -74q-38 -37 -38 -94zM323 1118l135 301h203l-225 -301h-113z" />
<glyph unicode="&#xe2;" horiz-adv-x="872" d="M55 209q0 88 61.5 155.5t178.5 108.5l233 80v49q0 166 -166 166q-150 0 -290 -154v199q106 125 305 125q150 0 239 -78q27 -23 54 -67q25 -45 30 -82q6 -43 7 -158v-391q0 -47 32 -47q31 0 103 49v-111q-61 -40 -99 -55q-35 -14 -79 -14q-115 0 -138 92 q-119 -90 -247 -90q-96 0 -160 63.5t-64 159.5zM236 240q0 -55 36.5 -92t94.5 -37q86 0 161 71v273l-122 -47q-90 -37 -132 -74q-38 -37 -38 -94zM151 1118l189 309h188l195 -309h-113l-178 176l-172 -176h-109z" />
<glyph unicode="&#xe3;" horiz-adv-x="872" d="M55 209q0 88 61.5 155.5t178.5 108.5l233 80v49q0 166 -166 166q-150 0 -290 -154v199q106 125 305 125q150 0 239 -78q27 -23 54 -67q25 -45 30 -82q6 -43 7 -158v-391q0 -47 32 -47q31 0 103 49v-111q-61 -40 -99 -55q-35 -14 -79 -14q-115 0 -138 92 q-119 -90 -247 -90q-96 0 -160 63.5t-64 159.5zM236 240q0 -55 36.5 -92t94.5 -37q86 0 161 71v273l-122 -47q-90 -37 -132 -74q-38 -37 -38 -94zM137 1155q16 143 57 188q43 47 107 48q53 0 188 -54q66 -27 96 -26q27 0 47.5 20.5t26.5 65.5h78q0 -121 -55 -189 q-43 -53 -105 -53q-57 0 -147 39q-94 41 -141 41q-27 0 -46 -21q-20 -23 -22 -59h-84z" />
<glyph unicode="&#xe4;" horiz-adv-x="872" d="M55 209q0 88 61.5 155.5t178.5 108.5l233 80v49q0 166 -166 166q-150 0 -290 -154v199q106 125 305 125q150 0 239 -78q27 -23 54 -67q25 -45 30 -82q6 -43 7 -158v-391q0 -47 32 -47q31 0 103 49v-111q-61 -40 -99 -55q-35 -14 -79 -14q-115 0 -138 92 q-119 -90 -247 -90q-96 0 -160 63.5t-64 159.5zM236 240q0 -55 36.5 -92t94.5 -37q86 0 161 71v273l-122 -47q-90 -37 -132 -74q-38 -37 -38 -94zM151 1272q0 41 27 67.5t65.5 26.5t67.5 -28.5t29 -67.5q0 -41 -27 -67.5t-65.5 -26.5t-67.5 28.5t-29 67.5zM536 1272 q0 41 27 67.5t65.5 26.5t67.5 -28.5t29 -67.5q0 -41 -27 -67.5t-65.5 -26.5t-67.5 28.5t-29 67.5z" />
<glyph unicode="&#xe5;" horiz-adv-x="872" d="M55 209q0 88 61.5 155.5t178.5 108.5l233 80v49q0 166 -166 166q-150 0 -290 -154v199q106 125 305 125q150 0 239 -78q27 -23 54 -67q25 -45 30 -82q6 -43 7 -158v-391q0 -47 32 -47q31 0 103 49v-111q-61 -40 -99 -55q-35 -14 -79 -14q-115 0 -138 92 q-119 -90 -247 -90q-96 0 -160 63.5t-64 159.5zM236 240q0 -55 36.5 -92t94.5 -37q86 0 161 71v273l-122 -47q-90 -37 -132 -74q-38 -37 -38 -94zM438 1497q78 0 133 -55.5t55 -132.5q0 -80 -55 -135q-57 -57 -133 -58q-78 0 -135 58q-55 55 -55 132.5t57 135.5 q55 55 133 55zM434 1415q-53 0 -82 -29q-31 -31 -31 -79q0 -47 35 -82q33 -33 82 -33t82 32.5t33 80t-33 79.5q-31 31 -86 31z" />
<glyph unicode="&#xe6;" horiz-adv-x="1363" d="M72 217q0 74 47 137q45 61 145 105q90 39 146 53l127 39v29q0 100 -35 145q-34 43 -117 43q-158 0 -293 -152v220q86 61 144 79q72 23 151 23q182 0 277 -119q78 66 137 92.5t135 26.5q160 0 254 -113q96 -115 96 -297v-28h-567q6 -139 43 -207q39 -72 100.5 -109 t143.5 -37q129 0 280 111v-178q-82 -53 -149 -76q-63 -20 -164 -20q-98 0 -182 39q-86 41 -127 102q-178 -141 -345 -141q-109 0 -178 65.5t-69 167.5zM252 252q0 -61 39 -102t92 -41q35 0 66 10q16 6 88 43v297l-99 -39q-104 -41 -143 -78q-43 -39 -43 -90zM741 616h363 q-12 80 -57 121q-46 43 -117 43q-136 0 -189 -164z" />
<glyph unicode="&#xe7;" horiz-adv-x="894" d="M78 455q0 219 125 350q127 133 329 133q61 0 127 -14q57 -12 140 -50v-194q-137 88 -256 88q-121 0 -201 -86t-80 -221q0 -141 86 -223q88 -84 230 -84q106 0 241 61v-180q-135 -51 -268 -51h-12l-7 -17q53 -12 86 -51q29 -35 29 -84q0 -78 -59 -129q-63 -53 -197 -53 q-35 0 -63 6v113q14 0 29.5 -1t22.5 -2.5t11 -1.5q55 0 88 23q20 14 21 33q0 27 -20.5 41t-76.5 14q-14 0 -22 -2l43 123q-127 27 -238 137q-108 109 -108 322z" />
<glyph unicode="&#xe8;" horiz-adv-x="980" d="M84 465q0 211 119 342t309 131q186 0 293 -127q109 -131 108 -344v-23h-647q6 -135 88 -211q84 -78 211 -77q178 0 332 112v-178q-83 -55 -166 -80q-84 -25 -194 -24q-152 0 -246 63q-96 66 -150 170q-57 111 -57 246zM270 553h463q-6 109 -65.5 168t-155.5 59t-160 -59 t-82 -168zM273 1419h205l137 -301h-113z" />
<glyph unicode="&#xe9;" horiz-adv-x="980" d="M84 465q0 211 119 342t309 131q186 0 293 -127q109 -131 108 -344v-23h-647q6 -135 88 -211q84 -78 211 -77q178 0 332 112v-178q-83 -55 -166 -80q-84 -25 -194 -24q-152 0 -246 63q-96 66 -150 170q-57 111 -57 246zM270 553h463q-6 109 -65.5 168t-155.5 59t-160 -59 t-82 -168zM377 1118l135 301h203l-225 -301h-113z" />
<glyph unicode="&#xea;" horiz-adv-x="980" d="M84 465q0 211 119 342t309 131q186 0 293 -127q109 -131 108 -344v-23h-647q6 -135 88 -211q84 -78 211 -77q178 0 332 112v-178q-83 -55 -166 -80q-84 -25 -194 -24q-152 0 -246 63q-96 66 -150 170q-57 111 -57 246zM270 553h463q-6 109 -65.5 168t-155.5 59t-160 -59 t-82 -168zM205 1118l189 309h188l195 -309h-113l-178 176l-172 -176h-109z" />
<glyph unicode="&#xeb;" horiz-adv-x="980" d="M84 465q0 211 119 342t309 131q186 0 293 -127q109 -131 108 -344v-23h-647q6 -135 88 -211q84 -78 211 -77q178 0 332 112v-178q-83 -55 -166 -80q-84 -25 -194 -24q-152 0 -246 63q-96 66 -150 170q-57 111 -57 246zM270 553h463q-6 109 -65.5 168t-155.5 59t-160 -59 t-82 -168zM205 1272q0 41 27 67.5t65.5 26.5t67.5 -28.5t29 -67.5q0 -41 -27 -67.5t-65.5 -26.5t-67.5 28.5t-29 67.5zM590 1272q0 41 27 67.5t65.5 26.5t67.5 -28.5t29 -67.5q0 -41 -27 -67.5t-65.5 -26.5t-67.5 28.5t-29 67.5z" />
<glyph unicode="&#xec;" horiz-adv-x="448" d="M133 920h182v-920h-182v920zM-37 1419h205l137 -301h-113z" />
<glyph unicode="&#xed;" horiz-adv-x="448" d="M133 920h182v-920h-182v920zM184 1118l135 301h203l-225 -301h-113z" />
<glyph unicode="&#xee;" horiz-adv-x="448" d="M133 920h182v-920h-182v920zM-45 1118l189 309h188l195 -309h-113l-178 176l-172 -176h-109z" />
<glyph unicode="&#xef;" horiz-adv-x="448" d="M133 920h182v-920h-182v920zM-62 1272q0 41 27 67.5t65.5 26.5t67.5 -28.5t29 -67.5q0 -41 -27 -67.5t-65.5 -26.5t-67.5 28.5t-29 67.5zM323 1272q0 41 27 67.5t65.5 26.5t67.5 -28.5t29 -67.5q0 -41 -27 -67.5t-65.5 -26.5t-67.5 28.5t-29 67.5z" />
<glyph unicode="&#xf0;" horiz-adv-x="1150" d="M82 453q0 211 143.5 348t358.5 137q68 0 106 -8q31 -6 107 -39q-57 98 -99 145q-35 41 -129 113l-295 -137l-47 112l215 101q-86 43 -172 61l97 127q102 -31 133 -45q27 -10 118 -59l224 104l49 -110l-154 -76q114 -98 166 -172q53 -74 90 -156q84 -180 84 -375 q0 -248 -137 -395q-135 -145 -371 -145q-207 0 -348 135q-139 133 -139 334zM258 453q0 -133 92 -219.5t232 -86.5q143 0 229 86t86 230q0 139 -88 225t-229 86q-137 0 -229.5 -92t-92.5 -229z" />
<glyph unicode="&#xf1;" d="M125 0v920h186v-117q123 135 277 135q82 0 160 -45q72 -41 112 -121q39 -76 39 -246v-526h-182v524q0 139 -43 200.5t-144 61.5q-129 0 -219 -129v-657h-186zM211 1155q16 143 57 188q43 47 107 48q53 0 188 -54q66 -27 96 -26q27 0 47.5 20.5t26.5 65.5h78 q0 -121 -55 -189q-43 -53 -105 -53q-57 0 -147 39q-94 41 -141 41q-27 0 -46 -21q-20 -23 -22 -59h-84z" />
<glyph unicode="&#xf2;" horiz-adv-x="1128" d="M76 451q0 203 141 337q139 133 352 134q209 0 348.5 -135.5t139.5 -340.5q0 -200 -142 -331q-139 -131 -354 -131q-207 0 -346 133t-139 334zM260 453q0 -132 86 -215q88 -84 221 -84q135 0 219 84q86 86 86 217t-90 217t-223 86q-132 0 -215 -86q-84 -88 -84 -219z M285 1419h205l137 -301h-113z" />
<glyph unicode="&#xf3;" horiz-adv-x="1128" d="M76 451q0 203 141 337q139 133 352 134q209 0 348.5 -135.5t139.5 -340.5q0 -200 -142 -331q-139 -131 -354 -131q-207 0 -346 133t-139 334zM260 453q0 -132 86 -215q88 -84 221 -84q135 0 219 84q86 86 86 217t-90 217t-223 86q-132 0 -215 -86q-84 -88 -84 -219z M432 1118l135 301h203l-225 -301h-113z" />
<glyph unicode="&#xf4;" horiz-adv-x="1128" d="M76 451q0 203 141 337q139 133 352 134q209 0 348.5 -135.5t139.5 -340.5q0 -200 -142 -331q-139 -131 -354 -131q-207 0 -346 133t-139 334zM260 453q0 -132 86 -215q88 -84 221 -84q135 0 219 84q86 86 86 217t-90 217t-223 86q-132 0 -215 -86q-84 -88 -84 -219z M264 1118l189 309h188l195 -309h-113l-178 176l-172 -176h-109z" />
<glyph unicode="&#xf5;" horiz-adv-x="1128" d="M76 451q0 203 141 337q139 133 352 134q209 0 348.5 -135.5t139.5 -340.5q0 -200 -142 -331q-139 -131 -354 -131q-207 0 -346 133t-139 334zM260 453q0 -132 86 -215q88 -84 221 -84q135 0 219 84q86 86 86 217t-90 217t-223 86q-132 0 -215 -86q-84 -88 -84 -219z M287 1155q16 143 57 188q43 47 107 48q53 0 188 -54q66 -27 96 -26q27 0 47.5 20.5t26.5 65.5h78q0 -121 -55 -189q-43 -53 -105 -53q-57 0 -147 39q-94 41 -141 41q-27 0 -46 -21q-20 -23 -22 -59h-84z" />
<glyph unicode="&#xf6;" horiz-adv-x="1128" d="M76 451q0 203 141 337q139 133 352 134q209 0 348.5 -135.5t139.5 -340.5q0 -200 -142 -331q-139 -131 -354 -131q-207 0 -346 133t-139 334zM260 453q0 -132 86 -215q88 -84 221 -84q135 0 219 84q86 86 86 217t-90 217t-223 86q-132 0 -215 -86q-84 -88 -84 -219z M252 1272q0 41 27 67.5t65.5 26.5t67.5 -28.5t29 -67.5q0 -41 -27 -67.5t-65.5 -26.5t-67.5 28.5t-29 67.5zM637 1272q0 41 27 67.5t65.5 26.5t67.5 -28.5t29 -67.5q0 -41 -27 -67.5t-65.5 -26.5t-67.5 28.5t-29 67.5z" />
<glyph unicode="&#xf7;" horiz-adv-x="1193" d="M115 639v168h966v-168h-966zM496 1024q0 45 30.5 75.5t77.5 30.5q45 0 76 -30q33 -33 33 -76q0 -45 -33 -78t-76 -33q-45 0 -78 33q-30 31 -30 78zM496 420q0 45 32 78q31 31 76 30q47 0 78 -30.5t31 -77.5t-31 -78t-78 -31q-45 0 -76 31q-32 33 -32 78z" />
<glyph unicode="&#xf8;" horiz-adv-x="1128" d="M72 459q0 205 141 342q139 137 352 137q156 0 283 -82l94 113l68 -62l-90 -106q139 -156 139 -346q0 -206 -141 -338q-143 -133 -365 -133q-147 0 -270 73l-115 -131l-68 62l111 127q-139 143 -139 344zM248 453q0 -115 78 -205l407 477q-82 49 -168 49q-133 0 -225 -92 t-92 -229zM395 190q72 -49 168 -49q135 0 227.5 92.5t92.5 223.5q0 70 -16.5 110.5t-61.5 102.5z" />
<glyph unicode="&#xf9;" d="M125 393v527h182v-525q0 -147 41 -202q43 -57 146 -58q129 0 221 127v658h182v-920h-182v117q-57 -63 -133 -98t-148 -35q-86 0 -160 43q-76 43 -112 118q-37 74 -37 248zM293 1419h205l137 -301h-113z" />
<glyph unicode="&#xfa;" d="M125 393v527h182v-525q0 -147 41 -202q43 -57 146 -58q129 0 221 127v658h182v-920h-182v117q-57 -63 -133 -98t-148 -35q-86 0 -160 43q-76 43 -112 118q-37 74 -37 248zM397 1118l135 301h203l-225 -301h-113z" />
<glyph unicode="&#xfb;" d="M125 393v527h182v-525q0 -147 41 -202q43 -57 146 -58q129 0 221 127v658h182v-920h-182v117q-57 -63 -133 -98t-148 -35q-86 0 -160 43q-76 43 -112 118q-37 74 -37 248zM225 1118l189 309h188l195 -309h-113l-178 176l-172 -176h-109z" />
<glyph unicode="&#xfc;" d="M125 393v527h182v-525q0 -147 41 -202q43 -57 146 -58q129 0 221 127v658h182v-920h-182v117q-57 -63 -133 -98t-148 -35q-86 0 -160 43q-76 43 -112 118q-37 74 -37 248zM225 1272q0 41 27 67.5t65.5 26.5t67.5 -28.5t29 -67.5q0 -41 -27 -67.5t-65.5 -26.5t-67.5 28.5 t-29 67.5zM610 1272q0 41 27 67.5t65.5 26.5t67.5 -28.5t29 -67.5q0 -41 -27 -67.5t-65.5 -26.5t-67.5 28.5t-29 67.5z" />
<glyph unicode="&#xfd;" horiz-adv-x="894" d="M0 920h207l248 -519l237 519h205l-651 -1389h-203l313 666zM333 1118l135 301h203l-225 -301h-113z" />
<glyph unicode="&#xfe;" d="M117 -469v1866h186v-477h133q248 0 381 -121q137 -125 137 -342q0 -207 -129 -340t-327 -133q-90 0 -195 39v-492h-186zM303 184q82 -43 176 -43q127 0 209 88t82 230q0 94 -39 159q-43 72 -104 101q-68 31 -195 31h-129v-566z" />
<glyph unicode="&#xff;" horiz-adv-x="894" d="M0 920h207l248 -519l237 519h205l-651 -1389h-203l313 666zM161 1272q0 41 27 67.5t65.5 26.5t67.5 -28.5t29 -67.5q0 -41 -27 -67.5t-65.5 -26.5t-67.5 28.5t-29 67.5zM546 1272q0 41 27 67.5t65.5 26.5t67.5 -28.5t29 -67.5q0 -41 -27 -67.5t-65.5 -26.5t-67.5 28.5 t-29 67.5z" />
<glyph unicode="&#x131;" horiz-adv-x="448" d="M133 920h182v-920h-182v920z" />
<glyph unicode="&#x152;" horiz-adv-x="1875" d="M96 692q0 315 219.5 510t571.5 195h905v-178h-571v-422h551v-179h-551v-438h594v-178h-861q-227 0 -374 47q-139 45 -258 148q-226 194 -226 495zM307 698q0 -223 164 -374q162 -150 410 -150h139v1049h-78q-231 0 -362 -72t-201 -190q-72 -122 -72 -263z" />
<glyph unicode="&#x153;" horiz-adv-x="1705" d="M72 459q0 205 143 342t358 137q240 0 388 -190q55 92 139 141q83 49 178 49q150 0 248 -104q47 -49 76 -127q27 -72 32 -207h-577v-23q0 -160 82 -246q80 -82 204 -81q141 0 291 114v-184q-76 -49 -157 -74q-68 -20 -174 -20q-233 0 -342 178q-147 -180 -402 -180 q-203 0 -346 137q-141 135 -141 338zM262 453q0 -127 88 -211t219 -84t215 84t84 217q0 129 -86 215t-215 86q-133 0 -219 -86t-86 -221zM1075 618h377q-33 162 -180 162q-71 0 -123 -43q-54 -43 -74 -119z" />
<glyph unicode="&#x178;" horiz-adv-x="1236" d="M0 1397h242l374 -482l379 482h242l-516 -658v-739h-205v739zM307 1612q0 41 27 67.5t65.5 26.5t67.5 -28.5t29 -67.5q0 -41 -27 -67.5t-65.5 -26.5t-67.5 28.5t-29 67.5zM692 1612q0 41 27 67.5t65.5 26.5t67.5 -28.5t29 -67.5q0 -41 -27 -67.5t-65.5 -26.5t-67.5 28.5 t-29 67.5z" />
<glyph unicode="&#x2c6;" horiz-adv-x="681" d="M55 1118l189 309h188l195 -309h-113l-178 176l-172 -176h-109z" />
<glyph unicode="&#x2da;" horiz-adv-x="681" d="M342 1497q78 0 133 -55.5t55 -132.5q0 -80 -55 -135q-57 -57 -133 -58q-78 0 -135 58q-55 55 -55 132.5t57 135.5q55 55 133 55zM338 1415q-53 0 -82 -29q-31 -31 -31 -79q0 -47 35 -82q33 -33 82 -33t82 32.5t33 80t-33 79.5q-31 31 -86 31z" />
<glyph unicode="&#x2dc;" horiz-adv-x="681" d="M41 1155q16 143 57 188q43 47 107 48q53 0 188 -54q66 -27 96 -26q27 0 47.5 20.5t26.5 65.5h78q0 -121 -55 -189q-43 -53 -105 -53q-57 0 -147 39q-94 41 -141 41q-27 0 -46 -21q-20 -23 -22 -59h-84z" />
<glyph unicode="&#x2000;" horiz-adv-x="937" />
<glyph unicode="&#x2001;" horiz-adv-x="1878" />
<glyph unicode="&#x2002;" horiz-adv-x="937" />
<glyph unicode="&#x2003;" horiz-adv-x="1878" />
<glyph unicode="&#x2004;" horiz-adv-x="624" />
<glyph unicode="&#x2005;" horiz-adv-x="468" />
<glyph unicode="&#x2006;" horiz-adv-x="311" />
<glyph unicode="&#x2007;" horiz-adv-x="311" />
<glyph unicode="&#x2008;" horiz-adv-x="233" />
<glyph unicode="&#x2009;" horiz-adv-x="374" />
<glyph unicode="&#x200a;" horiz-adv-x="102" />
<glyph unicode="&#x2010;" horiz-adv-x="661" d="M82 356v195h498v-195h-498z" />
<glyph unicode="&#x2011;" horiz-adv-x="661" d="M82 356v195h498v-195h-498z" />
<glyph unicode="&#x2013;" d="M-16 453v131h1058v-131h-1058z" />
<glyph unicode="&#x2014;" horiz-adv-x="2048" d="M-16 453v131h2082v-131h-2082z" />
<glyph unicode="&#x2018;" horiz-adv-x="448" d="M111 1106q0 233 239 309v-31q-86 -94 -86 -198q0 -16 2 -23q106 -33 107 -125q0 -51 -37 -84q-39 -35 -88 -34q-61 0 -101 51q-36 49 -36 135z" />
<glyph unicode="&#x2019;" horiz-adv-x="448" d="M78 1282q0 53 37 94q37 39 86 39q61 0 100 -53t39 -139q0 -113 -63.5 -197t-176.5 -119v39q45 41 64 86q16 41 20 119q-106 33 -106 131z" />
<glyph unicode="&#x201a;" horiz-adv-x="448" d="M78 131q0 53 37 94q37 39 86 39q61 0 100 -53t39 -139q0 -113 -64 -195q-66 -86 -176 -119v37q45 41 64 86q16 41 20 119q-106 31 -106 131z" />
<glyph unicode="&#x201c;" horiz-adv-x="872" d="M68 1116q0 102 63.5 184t171.5 115v-43q-80 -66 -80 -168l4 -51h9q37 0 65.5 -35t28.5 -80q0 -51 -33 -84q-35 -35 -82 -34q-59 0 -104 57q-43 55 -43 139zM524 1110q0 61 29 129q29 66 76 104q45 37 135 72v-41q-35 -23 -57.5 -72t-22.5 -100q0 -20 4 -49q47 -4 76 -35 q27 -29 27 -80q0 -49 -35 -83.5t-86 -34.5q-63 0 -104.5 53t-41.5 137z" />
<glyph unicode="&#x201d;" horiz-adv-x="872" d="M88 1284q0 61 33 96t88 35q61 0 102 -53q39 -51 39 -141q0 -218 -239 -301v38q80 61 79 189v22q-51 6 -75 35q-27 29 -27 80zM545 1292q0 55 33 88q35 35 86 35q66 0 104.5 -51t38.5 -139q0 -109 -64 -191q-66 -84 -172 -114v38q80 70 80 187v26q-106 15 -106 121z" />
<glyph unicode="&#x201e;" horiz-adv-x="917" d="M102 135q0 61 33 96q33 37 88 37q63 0 103 -55q39 -53 39 -145q0 -68 -27 -123q-29 -59 -76 -105q-51 -49 -137 -78v41q84 88 84 193v8q0 4 -1 9t-1 7q-47 6 -76 37q-29 33 -29 78zM561 143q0 55 33 88q35 35 86 35q63 0 104 -53q39 -51 39 -141q0 -111 -63 -193 q-66 -84 -172 -115v37q80 88 80 199q0 14 -2 23q-45 6 -76 38q-29 33 -29 82z" />
<glyph unicode="&#x2022;" horiz-adv-x="724" d="M109 698q0 102 75.5 178t177.5 76q106 0 180 -73.5t74 -180.5q0 -104 -75 -180q-74 -74 -178.5 -74t-178.5 74q-75 76 -75 180z" />
<glyph unicode="&#x2026;" horiz-adv-x="2048" d="M219 100q0 53 35 88q37 37 86 37t86 -36.5t37 -88t-35 -84.5q-39 -35 -88 -34q-51 0 -86 34.5t-35 83.5zM903 104q0 47 35 86q34 37 86 37q49 0 86 -36.5t37 -86.5q0 -51 -37 -86q-39 -35 -86 -34q-51 0 -86 34.5t-35 85.5zM1585 104.5q0 53.5 35 88t88 34.5q52 0 86 -37 q35 -39 35 -86q0 -51 -35 -85.5t-86 -34.5q-49 0 -88 34q-35 33 -35 86.5z" />
<glyph unicode="&#x202f;" horiz-adv-x="374" />
<glyph unicode="&#x2039;" horiz-adv-x="638" d="M74 461l301 459h180l-303 -459l303 -461h-180z" />
<glyph unicode="&#x203a;" horiz-adv-x="638" d="M86 0l303 459l-303 461h178l303 -461l-303 -459h-178z" />
<glyph unicode="&#x205f;" horiz-adv-x="468" />
<glyph unicode="&#x20ac;" horiz-adv-x="1247" d="M57 487l29 156h115q0 86 2 111h-146l27 155h141q61 236 215 371t367 135q160 0 350 -67l-39 -191q-176 74 -317 74q-281 0 -375 -322h594l-29 -155h-590q-2 -14 -2 -49q0 -39 2 -62h570l-29 -156h-516q92 -322 377 -321q182 0 346 137v-219q-145 -102 -352 -102 q-227 0 -379 135q-150 135 -199 370h-162z" />
<glyph unicode="&#x2122;" horiz-adv-x="2048" d="M225 1278v119h666v-119h-266v-696h-136v696h-264zM983 582v815h201l205 -652l198 652h197v-815h-125v684l-209 -684h-123l-219 696v-696h-125z" />
<glyph unicode="&#x2215;" horiz-adv-x="405" d="M598 1415h139l-930 -1468h-137z" />
<glyph horiz-adv-x="661" d="M453 1417h65v-401h92v-101h-92v-235h-137v235h-348v52zM381 1016v172l-162 -172h162z" />
</font>
</defs>
</svg>
